<svg width="20" height="24" viewBox="0 0 20 24" fill="none" xmlns="http://www.w3.org/2000/svg">
<path d="M15.0601 0.587295L7.86476 2.13795C7.60683 2.19295 7.37555 2.3347 7.20947 2.53956C7.04339 2.74441 6.95254 3.00001 6.95207 3.26373V15.6468C6.42708 15.4645 5.87516 15.3717 5.3194 15.3724C2.80633 15.3724 0.768982 17.2177 0.768982 19.4941C0.768982 21.7704 2.80633 23.6158 5.31947 23.6158C7.04656 23.6158 8.77399 22.677 9.49197 21.0764C10.116 19.6854 9.86983 18.0132 9.86983 16.5213V6.62223L19.779 4.32072C19.7449 1.87246 17.4654 0.0689939 15.0601 0.587361L15.0601 0.587295Z" fill="#FACD66"/>
</svg>
