<svg width="24" height="27" viewBox="0 0 24 27" fill="none" xmlns="http://www.w3.org/2000/svg">
<path d="M7.0565 4.99802V18.2556C7.05633 18.2872 7.0488 18.3184 7.03452 18.3466C7.02023 18.3748 6.99958 18.3993 6.97419 18.4182C6.9488 18.437 6.91937 18.4497 6.88824 18.4552C6.8571 18.4607 6.82511 18.4589 6.79479 18.4499C6.34897 18.3225 5.88751 18.2581 5.42383 18.2585C2.91069 18.2585 0.873413 20.1039 0.873413 22.3802C0.873413 24.6566 2.91069 26.502 5.42383 26.502C7.15093 26.502 8.87842 25.5632 9.5964 23.9626C10.2204 22.5716 9.97425 20.8993 9.97425 19.4075V8.62453C9.97439 8.54813 10.0004 8.47402 10.048 8.41428C10.0957 8.35455 10.1621 8.3127 10.2366 8.29555L19.8834 6.05501C19.9331 6.04332 19.9848 6.043 20.0346 6.05407C20.0844 6.06514 20.1311 6.08732 20.1712 6.11894C20.2112 6.15056 20.2436 6.19082 20.266 6.23671C20.2883 6.2826 20.3 6.33294 20.3002 6.38398V17.2421C20.3 17.2737 20.2925 17.3048 20.2782 17.3331C20.2639 17.3613 20.2433 17.3858 20.2179 17.4046C20.1925 17.4235 20.1631 17.4362 20.1319 17.4417C20.1008 17.4472 20.0688 17.4454 20.0385 17.4364C19.5926 17.309 19.1312 17.2446 18.6675 17.245C16.1544 17.245 14.1171 19.0904 14.1171 21.3667C14.1171 23.6431 16.1544 25.4884 18.6674 25.4884C20.1883 25.4884 21.7005 24.7011 22.5534 23.413C23.3799 22.1648 23.2183 20.8537 23.2179 19.4434C23.2171 16.9282 23.2171 14.413 23.2179 11.8979V1.84266C23.2174 1.69091 23.1829 1.54119 23.1171 1.40447C23.0512 1.26776 22.9556 1.14751 22.8372 1.05253C22.7189 0.957554 22.5808 0.890258 22.433 0.855574C22.2853 0.820889 22.1317 0.819694 21.9834 0.852075L7.96919 3.87223C7.71126 3.92724 7.47998 4.06898 7.3139 4.27384C7.14782 4.4787 7.05697 4.73429 7.0565 4.99802Z" fill="#A4C7C6"/>
</svg>
